<?xml version="1.0" encoding="UTF-8" standalone="no"?>
<!-- Uploaded to: SVG Repo, www.svgrepo.com, Generator: SVG Repo Mixer Tools -->

<svg
   width="800px"
   height="800px"
   viewBox="0 0 48 48"
   id="Layer_2"
   data-name="Layer 2"
   version="1.1"
   sodipodi:docname="github.svg"
   inkscape:version="1.1.2 (0a00cf5339, 2022-02-04)"
   xmlns:inkscape="http://www.inkscape.org/namespaces/inkscape"
   xmlns:sodipodi="http://sodipodi.sourceforge.net/DTD/sodipodi-0.dtd"
   xmlns="http://www.w3.org/2000/svg"
   xmlns:svg="http://www.w3.org/2000/svg">
  <sodipodi:namedview
     id="namedview9"
     pagecolor="#ffffff"
     bordercolor="#666666"
     borderopacity="1.0"
     inkscape:pageshadow="2"
     inkscape:pageopacity="0.0"
     inkscape:pagecheckerboard="0"
     showgrid="false"
     inkscape:zoom="1.05125"
     inkscape:cx="400.47562"
     inkscape:cy="400.47562"
     inkscape:window-width="1053"
     inkscape:window-height="996"
     inkscape:window-x="964"
     inkscape:window-y="39"
     inkscape:window-maximized="0"
     inkscape:current-layer="Layer_2" />
  <defs
     id="defs4">
    <style
       id="style2">.cls-1{fill:none;stroke:#000000;stroke-linecap:round;stroke-linejoin:round;fill-rule:evenodd;}</style>
  </defs>
  <path
     class="cls-1"
     d="m 24,2.5 a 21.5,21.5 0 0 0 -6.8,41.9 c 1.08,0.2 1.47,-0.46 1.47,-1 0,-0.54 0,-1.86 0,-3.65 -6,1.3 -7.24,-2.88 -7.24,-2.88 A 5.7,5.7 0 0 0 9,33.68 C 7.05,32.35 9.15,32.37 9.15,32.37 a 4.52,4.52 0 0 1 3.29,2.22 c 1.92,3.29 5,2.34 6.26,1.79 a 4.61,4.61 0 0 1 1.37,-2.88 c -4.78,-0.54 -9.8,-2.38 -9.8,-10.62 a 8.29,8.29 0 0 1 2.22,-5.77 7.68,7.68 0 0 1 0.21,-5.69 c 0,0 1.8,-0.58 5.91,2.2 a 20.46,20.46 0 0 1 10.76,0 c 4.11,-2.78 5.91,-2.2 5.91,-2.2 a 7.74,7.74 0 0 1 0.21,5.69 8.28,8.28 0 0 1 2.21,5.77 c 0,8.26 -5,10.07 -9.81,10.61 a 5.12,5.12 0 0 1 1.46,4 c 0,2.87 0,5.19 0,5.9 0,0.71 0.39,1.24 1.48,1 A 21.5,21.5 0 0 0 24,2.5"
     id="path6"
     style="stroke:#eeb0f7;stroke-opacity:1" />
</svg>
