<?xml version="1.0" encoding="UTF-8" standalone="no"?>
<!-- Uploaded to: SVG Repo, www.svgrepo.com, Generator: SVG Repo Mixer Tools -->

<svg
   width="800px"
   height="800px"
   viewBox="0 0 48 48"
   version="1.1"
   id="svg12"
   sodipodi:docname="inaturalist.svg"
   inkscape:version="1.1.2 (0a00cf5339, 2022-02-04)"
   xmlns:inkscape="http://www.inkscape.org/namespaces/inkscape"
   xmlns:sodipodi="http://sodipodi.sourceforge.net/DTD/sodipodi-0.dtd"
   xmlns="http://www.w3.org/2000/svg"
   xmlns:svg="http://www.w3.org/2000/svg">
  <sodipodi:namedview
     id="namedview14"
     pagecolor="#ffffff"
     bordercolor="#666666"
     borderopacity="1.0"
     inkscape:pageshadow="2"
     inkscape:pageopacity="0.0"
     inkscape:pagecheckerboard="0"
     showgrid="false"
     inkscape:zoom="1.05125"
     inkscape:cx="400.47562"
     inkscape:cy="400.47562"
     inkscape:window-width="1050"
     inkscape:window-height="996"
     inkscape:window-x="964"
     inkscape:window-y="39"
     inkscape:window-maximized="0"
     inkscape:current-layer="svg12" />
  <defs
     id="defs4">
    <style
       id="style2">.a{fill:none;stroke:#000000;stroke-linecap:round;stroke-linejoin:round;}.b{fill:#000000;}</style>
  </defs>
  <path
     class="a"
     d="M30.56,23.21c.88,0,3.06-8.39,12.94-5.05-4.76,3.63-2.1,8.66-6.86,15.21A18.47,18.47,0,0,1,22,41.11a18.67,18.67,0,0,1-6.91-1.25A16,16,0,0,0,27,31.61a12.15,12.15,0,0,1-14-5.8,18.07,18.07,0,0,1,4.67-.69s-8.14-3.27-9-5.85c1.21-.95,4.94-.42,4.94-.42S5,14.1,4.5,10.86C19.75,10.86,29.73,23.21,30.56,23.21Z"
     id="path6"
     style="fill:none;fill-opacity:1;stroke:#eeb0f7;stroke-opacity:1" />
  <path
     class="a"
     d="M24.32,18S19.15,11.42,19,6.89C22.91,7,30.29,13,31.27,22.41"
     id="path8"
     style="fill:none;fill-opacity:1;stroke:#eeb0f7;stroke-opacity:1" />
  <circle
     class="b"
     cx="37.97"
     cy="19.87"
     r="0.75"
     id="circle10"
     style="fill:none;fill-opacity:1;stroke:#eeb0f7;stroke-opacity:1" />
</svg>
