<?xml version="1.0" encoding="UTF-8" standalone="no"?>
<!-- Uploaded to: SVG Repo, www.svgrepo.com, Generator: SVG Repo Mixer Tools -->

<svg
   width="800px"
   height="800px"
   viewBox="0 0 48 48"
   id="Layer_2"
   data-name="Layer 2"
   version="1.1"
   sodipodi:docname="twitter.svg"
   inkscape:version="1.3.2 (091e20ef0f, 2023-11-25)"
   xmlns:inkscape="http://www.inkscape.org/namespaces/inkscape"
   xmlns:sodipodi="http://sodipodi.sourceforge.net/DTD/sodipodi-0.dtd"
   xmlns="http://www.w3.org/2000/svg"
   xmlns:svg="http://www.w3.org/2000/svg">
  <sodipodi:namedview
     id="namedview9"
     pagecolor="#ffffff"
     bordercolor="#666666"
     borderopacity="1.0"
     inkscape:pageshadow="2"
     inkscape:pageopacity="0.0"
     inkscape:pagecheckerboard="0"
     showgrid="false"
     inkscape:zoom="1.05125"
     inkscape:cx="400.47562"
     inkscape:cy="400"
     inkscape:window-width="1499"
     inkscape:window-height="991"
     inkscape:window-x="26"
     inkscape:window-y="23"
     inkscape:window-maximized="0"
     inkscape:current-layer="Layer_2"
     inkscape:showpageshadow="0"
     inkscape:deskcolor="#505050" />
  <defs
     id="defs4">
    <style
       id="style2">.cls-1{fill:none;stroke:#000000;stroke-linecap:round;stroke-linejoin:round;}</style>
  </defs>
  <path
     class="cls-1"
     d="m 37.651341,16.492925 v 1 c 0,10.07 -7.64,21.61 -21.62,21.61 a 21.14,21.14 0 0 1 -11.6200003,-3.45 12.22,12.22 0 0 0 1.81,0.11 15.25,15.25 0 0 0 9.4400003,-3.24 7.56,7.56 0 0 1 -7.1000003,-5.29 6.9,6.9 0 0 0 1.4400003,0.15 7.53,7.53 0 0 0 2,-0.27 7.57,7.57 0 0 1 -6.0900003,-7.45 v -0.1 a 7.42,7.42 0 0 0 3.44,0.94 7.54,7.54 0 0 1 -2.39,-10.06 21.58,21.58 0 0 0 15.6800003,7.94 6.38,6.38 0 0 1 -0.21,-1.74 7.55,7.55 0 0 1 13.17,-5.31 15.59,15.59 0 0 0 4.83,-1.8499999 7.65,7.65 0 0 1 -3.39,4.2699999 15.87,15.87 0 0 0 4.37,-1.26 15.56,15.56 0 0 1 -3.76,4 z"
     id="path6"
     style="stroke:#c1decc;stroke-opacity:1;stroke-width:1.00002;stroke-dasharray:none" />
</svg>
